<svg width="33" height="32" viewBox="0 0 33 32" fill="none" xmlns="http://www.w3.org/2000/svg">
  <g filter="url(#filter0_d_29_1955)">
    <path
      d="M16.1981 2.16218C19.4173 2.16218 19.7985 2.17418 21.0702 2.23189C21.8349 2.24121 22.5922 2.38094 23.3094 2.64502C23.8295 2.84463 24.3018 3.15042 24.696 3.54269C25.0901 3.93496 25.3974 4.40502 25.5979 4.92262C25.8633 5.63637 26.0037 6.39011 26.0131 7.15109C26.0705 8.41674 26.0831 8.79615 26.0831 12C26.0831 15.2038 26.071 15.5833 26.0131 16.8489C26.0037 17.6099 25.8633 18.3636 25.5979 19.0774C25.3974 19.595 25.0901 20.065 24.696 20.4573C24.3018 20.8496 23.8295 21.1554 23.3094 21.355C22.5922 21.6191 21.8349 21.7588 21.0702 21.7681C19.7991 21.8252 19.4179 21.8378 16.1981 21.8378C12.9783 21.8378 12.597 21.8258 11.3259 21.7681C10.5613 21.7588 9.8039 21.6191 9.08672 21.355C8.56664 21.1554 8.09432 20.8496 7.70017 20.4573C7.30601 20.065 6.99876 19.595 6.79819 19.0774C6.53284 18.3636 6.39244 17.6099 6.38308 16.8489C6.32567 15.5833 6.31304 15.2038 6.31304 12C6.31304 8.79615 6.32509 8.41674 6.38308 7.15109C6.39244 6.39011 6.53284 5.63637 6.79819 4.92262C6.99876 4.40502 7.30601 3.93496 7.70017 3.54269C8.09432 3.15042 8.56664 2.84463 9.08672 2.64502C9.8039 2.38094 10.5613 2.24121 11.3259 2.23189C12.5976 2.17475 12.9788 2.16218 16.1981 2.16218ZM16.1981 0C12.9254 0 12.5132 0.0137136 11.2271 0.0719965C10.2264 0.0918058 9.23634 0.280376 8.299 0.629684C7.49491 0.931193 6.76661 1.40368 6.16491 2.01419C5.55092 2.61323 5.07575 3.33847 4.77261 4.13923C4.42162 5.0721 4.23215 6.05745 4.21225 7.05338C4.15483 8.33217 4.14105 8.74244 4.14105 11.9994C4.14105 15.2564 4.15483 15.6667 4.21339 16.9466C4.2333 17.9425 4.42277 18.9279 4.77376 19.8608C5.07657 20.6614 5.55133 21.3867 6.16491 21.9858C6.76694 22.5965 7.49565 23.069 8.30015 23.3703C9.23749 23.7196 10.2276 23.9082 11.2283 23.928C12.5144 23.9851 12.9249 24 16.1992 24C19.4736 24 19.8841 23.9863 21.1701 23.928C22.1709 23.9082 23.1609 23.7196 24.0983 23.3703C24.899 23.0614 25.6261 22.5896 26.2331 21.9851C26.8401 21.3806 27.3137 20.6567 27.6235 19.8596C27.9745 18.9268 28.164 17.9414 28.1839 16.9455C28.2413 15.6667 28.2551 15.2564 28.2551 11.9994C28.2551 8.74244 28.2413 8.33217 28.1827 7.05224C28.1628 6.05631 27.9734 5.07096 27.6224 4.13809C27.3196 3.33743 26.8448 2.6122 26.2312 2.01305C25.6292 1.4024 24.9005 0.929903 24.096 0.628541C23.1586 0.279233 22.1686 0.0906631 21.1679 0.0708538C19.8829 0.0137137 19.4707 0 16.1981 0Z"
      fill="#12132D" />
    <path
      d="M16.1959 5.83777C14.9713 5.83777 13.7742 6.19916 12.756 6.87625C11.7378 7.55334 10.9442 8.51571 10.4756 9.64167C10.007 10.7676 9.88437 12.0066 10.1233 13.2019C10.3622 14.3972 10.9519 15.4952 11.8178 16.3569C12.6837 17.2187 13.7869 17.8056 14.988 18.0434C16.189 18.2811 17.4339 18.1591 18.5653 17.6927C19.6966 17.2263 20.6636 16.4365 21.344 15.4232C22.0243 14.4098 22.3874 13.2185 22.3874 11.9998C22.3874 10.3655 21.7351 8.79817 20.574 7.64258C19.4128 6.48698 17.838 5.83777 16.1959 5.83777ZM16.1959 15.9996C15.401 15.9996 14.624 15.765 13.963 15.3255C13.3021 14.886 12.787 14.2613 12.4828 13.5304C12.1786 12.7996 12.099 11.9953 12.2541 11.2194C12.4092 10.4436 12.7919 9.73085 13.354 9.17147C13.9161 8.61209 14.6322 8.23114 15.4118 8.07681C16.1914 7.92247 16.9995 8.00168 17.7339 8.30442C18.4683 8.60715 19.0959 9.11982 19.5375 9.77759C19.9792 10.4354 20.2149 11.2087 20.2149 11.9998C20.2149 13.0606 19.7914 14.0779 19.0377 14.8281C18.284 15.5782 17.2618 15.9996 16.1959 15.9996Z"
      fill="#12132D" />
    <path d="M22.6329 7.03404C23.432 7.03404 24.0798 6.38936 24.0798 5.59411C24.0798 4.79885 23.432 4.15417 22.6329 4.15417C21.8339 4.15417 21.1861 4.79885 21.1861 5.59411C21.1861 6.38936 21.8339 7.03404 22.6329 7.03404Z" fill="#12132D" />
  </g>
  <defs>
    <filter id="filter0_d_29_1955" x="0.141052" y="0" width="32.114" height="32" filterUnits="userSpaceOnUse" color-interpolation-filters="sRGB">
      <feFlood flood-opacity="0" result="BackgroundImageFix" />
      <feColorMatrix in="SourceAlpha" type="matrix" values="0 0 0 0 0 0 0 0 0 0 0 0 0 0 0 0 0 0 127 0" result="hardAlpha" />
      <feOffset dy="4" />
      <feGaussianBlur stdDeviation="2" />
      <feComposite in2="hardAlpha" operator="out" />
      <feColorMatrix type="matrix" values="0 0 0 0 0 0 0 0 0 0 0 0 0 0 0 0 0 0 0.25 0" />
      <feBlend mode="normal" in2="BackgroundImageFix" result="effect1_dropShadow_29_1955" />
      <feBlend mode="normal" in="SourceGraphic" in2="effect1_dropShadow_29_1955" result="shape" />
    </filter>
  </defs>
</svg>